<?xml version="1.0" standalone="no"?>
<!DOCTYPE svg PUBLIC "-//W3C//DTD SVG 20010904//EN"
 "http://www.w3.org/TR/2001/REC-SVG-20010904/DTD/svg10.dtd">
<svg version="1.0" xmlns="http://www.w3.org/2000/svg" viewBox="0 0 980.000000 988.000000"
 preserveAspectRatio="xMidYMid meet">

<g transform="translate(0.000000,988.000000) scale(0.100000,-0.100000)" stroke="none">
<path d="M4665 9869 c-943 -71 -1805 -576 -2336 -1372 -267 -401 -436 -861
-494 -1352 -20 -165 -23 -508 -6 -665 95 -867 523 -1625 1215 -2152 55 -43
107 -78 114 -78 6 0 12 -4 12 -10 0 -5 7 -10 15 -10 8 0 15 -4 15 -10 0 -5 6
-10 14 -10 8 0 16 -4 18 -9 1 -5 40 -31 86 -59 l83 -50 -33 -12 c-18 -7 -40
-14 -49 -16 -8 -2 -71 -24 -140 -50 -687 -258 -1293 -652 -1805 -1176 -105
-107 -171 -180 -306 -338 -104 -122 -298 -401 -418 -600 -109 -181 -335 -643
-344 -704 -1 -6 -5 -16 -8 -22 -13 -20 -67 -174 -61 -174 3 0 1 -6 -4 -12 -9
-12 -31 -70 -37 -101 -2 -7 -6 -19 -9 -27 -29 -72 -95 -332 -131 -515 -21
-106 -56 -319 -56 -340 0 -3 140 -4 312 -3 l311 3 18 105 c10 58 21 119 23
135 11 71 92 372 136 505 98 294 244 611 396 860 39 63 77 126 85 140 8 14 16
27 19 30 3 3 38 50 77 105 222 313 507 618 793 848 41 33 80 66 86 74 6 7 16
13 22 13 6 0 15 6 19 13 4 6 16 17 25 22 9 6 61 41 115 79 54 38 159 105 233
150 74 44 137 83 140 86 3 3 86 44 185 92 202 97 347 158 510 212 61 21 117
40 125 43 8 3 20 7 25 9 6 1 81 21 169 43 787 205 1648 177 2423 -78 398 -130
825 -347 1163 -589 930 -666 1561 -1673 1749 -2789 l18 -108 312 -3 313 -2 -7
42 c-102 671 -283 1215 -581 1745 -326 581 -769 1095 -1299 1508 -129 101
-405 286 -557 374 -242 139 -584 294 -866 391 l-92 33 100 61 c802 491 1330
1299 1460 2232 5 39 14 150 20 247 42 748 -199 1496 -675 2092 -106 133 -345
372 -475 475 -619 491 -1384 727 -2165 669z m595 -634 c987 -150 1786 -871
2030 -1830 58 -230 74 -356 74 -605 1 -298 -32 -513 -119 -775 -130 -396 -329
-712 -632 -1005 -430 -417 -947 -646 -1557 -691 -328 -23 -726 35 -1021 150
-94 37 -288 123 -295 131 -3 3 -32 21 -65 39 -165 92 -336 222 -493 376 -214
207 -367 416 -495 675 -39 79 -72 149 -74 155 -1 5 -22 66 -47 135 -48 137
-87 299 -113 467 -24 165 -25 494 -1 658 134 923 730 1669 1589 1991 198 74
390 117 659 148 79 9 460 -3 560 -19z"/>
</g>
</svg>
